Machete (2010) 1080P X264 MKV AC3 + DTS NLSubs

PLOT

After being betrayed by the organization who hired him, 
an ex-Federale launches a brutal rampage of revenge against his former boss. 
 
http://www.youtube.com/watch?v=I16020r--oM

MM:    http://www.moviemeter.nl/film/59376

IMDB:    http://www.imdb.com/title/tt0985694/

INFO

Source.......: Machete.2010.BDRemux.1080p.AVC.DTS.5.1-HDBiZ
FRAME RATE...: 23.976 fps
VIDEO CODEC..: X264
AUDIO 1......: AC3
AUDIO 2......: DTS
RESOLUTION...: 1920x1080
GENERE.......: Action | Adventure | Comedy | Crime   
LANGUAGE.....: English
SUBTITLES....: Dutch (selectable)
Encoder......: NLUPPER

PLAYER INFO

General
Format                           : Matroska
File size                        : 8.26 GiB
Duration                         : 1h 44mn
Overall bit rate                 : 11.3 Mbps
Movie name                       : Machete.2010.1080P.X264.MKV.AC3.DTS.NLSubs.NLU.mkv
Encoded date                     : UTC 2010-10-14 17:17:03
Writing application              : mkvmerge v4.3.0 ('Escape from the Island') built on Sep  5 2010 10:30:51
Writing library                  : libebml v1.0.0 + libmatroska v1.0.0

Video
ID                               : 1
Format                           : AVC
Format/Info                      : Advanced Video Codec
Format profile                   : Main@L4.0
Format settings, CABAC           : Yes
Format settings, ReFrames        : 2 frames
Muxing mode                      : Container profile=Unknown@4.0
Codec ID                         : V_MPEG4/ISO/AVC
Duration                         : 1h 44mn
Bit rate                         : 8 931 Kbps
Width                            : 1 920 pixels
Height                           : 1 080 pixels
Display aspect ratio             : 16:9
Frame rate                       : 23.976 fps
Color space                      : YUV
Chroma subsampling               : 4:2:0
Bit depth                        : 8 bits
Scan type                        : Progressive
Bits/(Pixel*Frame)               : 0.180
Stream size                      : 6.53 GiB (79%)
Writing library                  : x264 core
Color primaries                  : BT.709-5, BT.1361, IEC 61966-2-4, SMPTE RP177
Transfer characteristics         : BT.709-5, BT.1361
Matrix coefficients              : BT.709-5, BT.1361, IEC 61966-2-4 709, SMPTE RP177

Audio #1
ID                               : 2
Format                           : DTS
Format/Info                      : Digital Theater Systems
Muxing mode                      : Header stripping
Codec ID                         : A_DTS
Duration                         : 1h 44mn
Bit rate mode                    : Constant
Bit rate                         : 1 510 Kbps
Channel(s)                       : 6 channels
Channel positions                : Front: L C R, Side: L R, LFE
Sampling rate                    : 48.0 KHz
Bit depth                        : 24 bits
Stream size                      : 1.10 GiB (13%)

Audio #2
ID                               : 3
Format                           : AC-3
Format/Info                      : Audio Coding 3
Mode extension                   : CM (complete main)
Muxing mode                      : Header stripping
Codec ID                         : A_AC3
Duration                         : 1h 44mn
Bit rate mode                    : Constant
Bit rate                         : 640 Kbps
Channel(s)                       : 6 channels
Channel positions                : Front: L C R, Side: L R, LFE
Sampling rate                    : 48.0 KHz
Bit depth                        : 16 bits
Stream size                      : 479 MiB (6%)
Language                         : English

Text
ID                               : 4
Format                           : UTF-8
Codec ID                         : S_TEXT/UTF8
Codec ID/Info                    : UTF-8 Plain Text
Title                            : Nederlands
Language                         : Dutch

